<svg data-v-423bf9ae="" xmlns="http://www.w3.org/2000/svg" viewBox="0 0 387 90" class="iconLeft"><!----><!----><!----><g data-v-423bf9ae="" id="c0a29ced-8e24-4309-b6d9-5f69af7b6945" fill="white" transform="matrix(5.830903811703725,0,0,5.830903811703725,114.7230382028292,2.3469397142517323)"><path d="M-0.81 12.29L3.65 7.20L1.18 2.69L3.21 2.69L4.86 5.82L4.93 5.82L7.63 2.69L9.81 2.69L5.74 7.32L8.46 12.29L6.43 12.29L4.55 8.72L4.47 8.72L1.37 12.29L-0.81 12.29ZM9.52 12.29L11.30 2.17L12.98 2.17L11.20 12.29L9.52 12.29ZM14.64 3.78L14.92 2.17L16.60 2.17L16.32 3.78L14.64 3.78ZM13.15 12.29L14.45 4.93L16.13 4.93L14.83 12.29L13.15 12.29ZM18.69 12.29L17.26 4.93L18.96 4.93L19.56 8.27L19.56 8.27Q19.64 8.68 19.74 9.47L19.74 9.47L19.74 9.47Q19.84 10.26 19.87 10.51L19.87 10.51L19.94 10.51L19.94 10.51Q20.03 10.26 20.36 9.50L20.36 9.50L20.36 9.50Q20.69 8.74 20.93 8.27L20.93 8.27L22.71 4.93L24.47 4.93L20.44 12.29L18.69 12.29ZM27.66 12.46L27.66 12.46Q26.00 12.46 25.18 11.77L25.18 11.77L25.18 11.77Q24.36 11.07 24.36 9.63L24.36 9.63L24.36 9.63Q24.36 8.32 24.77 7.21L24.77 7.21L24.77 7.21Q25.19 6.10 26.07 5.43L26.07 5.43L26.07 5.43Q26.96 4.76 28.34 4.76L28.34 4.76L28.34 4.76Q31.33 4.76 31.33 7.43L31.33 7.43L31.33 7.43Q31.33 7.99 31.22 8.51L31.22 8.51L31.14 9.02L26.11 9.02L26.11 9.02Q26.07 9.24 26.07 9.62L26.07 9.62L26.07 9.62Q26.07 10.39 26.44 10.76L26.44 10.76L26.44 10.76Q26.81 11.13 27.61 11.13L27.61 11.13L27.61 11.13Q28.32 11.13 28.78 10.78L28.78 10.78L28.78 10.78Q29.23 10.43 29.36 9.72L29.36 9.72L31.01 9.72L31.01 9.72Q30.80 11.07 29.90 11.77L29.90 11.77L29.90 11.77Q28.99 12.46 27.66 12.46L27.66 12.46ZM26.35 7.83L29.61 7.83L29.61 7.83Q29.65 7.57 29.65 7.34L29.65 7.34L29.65 7.34Q29.65 6.69 29.32 6.39L29.32 6.39L29.32 6.39Q28.98 6.09 28.38 6.09L28.38 6.09L28.38 6.09Q26.82 6.09 26.35 7.83L26.35 7.83ZM33.99 12.29L32.56 4.93L34.26 4.93L34.86 8.27L34.86 8.27Q34.94 8.68 35.04 9.47L35.04 9.47L35.04 9.47Q35.14 10.26 35.17 10.51L35.17 10.51L35.24 10.51L35.24 10.51Q35.34 10.26 35.66 9.50L35.66 9.50L35.66 9.50Q35.99 8.74 36.23 8.27L36.23 8.27L38.01 4.93L39.77 4.93L35.74 12.29L33.99 12.29ZM41.09 3.78L41.37 2.17L43.05 2.17L42.77 3.78L41.09 3.78ZM39.59 12.29L40.89 4.93L42.57 4.93L41.27 12.29L39.59 12.29ZM43.22 12.29L45.00 2.17L46.68 2.17L44.90 12.29L43.22 12.29Z"></path></g><!----><g data-v-423bf9ae="" id="0a7af086-832b-41d7-8ae6-3eed6ce56596" transform="matrix(1.5,0,0,1.5,0,0)" stroke="none" fill="white"><path d="M30 0C13.458 0 0 13.458 0 30s13.458 30 30 30 30-13.458 30-30S46.542 0 30 0zm-6.259 10.034a1 1 0 1 1 .518 1.932 1 1 0 0 1-.518-1.932zm-9.448 31.191a1 1 0 1 1-.518-1.932 1 1 0 0 1 .518 1.932zM16 18h-1v1a1 1 0 1 1-2 0v-1h-1a1 1 0 1 1 0-2h1v-1a1 1 0 1 1 2 0v1h1a1 1 0 1 1 0 2zm8.259 33.966a1 1 0 1 1-.518-1.932 1 1 0 0 1 .518 1.932zM27 34h-1v1a1 1 0 1 1-2 0v-1h-1a1 1 0 1 1 0-2h1v-1a1 1 0 1 1 2 0v1h1a1 1 0 1 1 0 2zm8-28h1V5a1 1 0 1 1 2 0v1h1a1 1 0 1 1 0 2h-1v1a1 1 0 1 1-2 0V8h-1a1 1 0 1 1 0-2zm4.259 43.966a1 1 0 1 1-.518-1.932 1 1 0 0 1 .518 1.932zM42 21h-1.586L38 23.414V25a1 1 0 1 1-2 0v-1.586L33.586 21H32a1 1 0 1 1 0-2h1.586L36 16.586V15a1 1 0 1 1 2 0v1.586L40.414 19H42a1 1 0 1 1 0 2zm7 20h-1v1a1 1 0 1 1-2 0v-1h-1a1 1 0 1 1 0-2h1v-1a1 1 0 1 1 2 0v1h1a1 1 0 1 1 0 2zm1.259-13.034a1 1 0 1 1-.518-1.932 1 1 0 0 1 .518 1.932z" fill-rule="evenodd"></path></g><!----></svg>