<svg data-v-fde0c5aa="" xmlns="http://www.w3.org/2000/svg" viewBox="0 0 300 300" class="icon"><!----><defs data-v-fde0c5aa=""><!----></defs><rect data-v-fde0c5aa="" fill="transparent" x="0" y="0" width="300px" height="300px" class="logo-background-square"></rect><!----><defs data-v-fde0c5aa=""><linearGradient data-v-fde0c5aa="" gradientTransform="rotate(25)" id="f04df173-a509-4b54-9899-b45f100bca24" x1="0%" y1="0%" x2="100%" y2="0%"><stop data-v-fde0c5aa="" offset="0%" stop-color="#08C7D6" stop-opacity="1"></stop><stop data-v-fde0c5aa="" offset="100%" stop-color="#02023E" stop-opacity="1"></stop></linearGradient></defs><g data-v-fde0c5aa="" id="e11b0aa0-7840-4a75-a553-3439b31bb588" fill="url(#f04df173-a509-4b54-9899-b45f100bca24)" stroke="none" transform="matrix(3.6666666666666665,0,0,3.6666666666666665,40,40)"><path d="M30 0C13.458 0 0 13.458 0 30s13.458 30 30 30 30-13.458 30-30S46.542 0 30 0zm-6.259 10.034a1 1 0 1 1 .518 1.932 1 1 0 0 1-.518-1.932zm-9.448 31.191a1 1 0 1 1-.518-1.932 1 1 0 0 1 .518 1.932zM16 18h-1v1a1 1 0 1 1-2 0v-1h-1a1 1 0 1 1 0-2h1v-1a1 1 0 1 1 2 0v1h1a1 1 0 1 1 0 2zm8.259 33.966a1 1 0 1 1-.518-1.932 1 1 0 0 1 .518 1.932zM27 34h-1v1a1 1 0 1 1-2 0v-1h-1a1 1 0 1 1 0-2h1v-1a1 1 0 1 1 2 0v1h1a1 1 0 1 1 0 2zm8-28h1V5a1 1 0 1 1 2 0v1h1a1 1 0 1 1 0 2h-1v1a1 1 0 1 1-2 0V8h-1a1 1 0 1 1 0-2zm4.259 43.966a1 1 0 1 1-.518-1.932 1 1 0 0 1 .518 1.932zM42 21h-1.586L38 23.414V25a1 1 0 1 1-2 0v-1.586L33.586 21H32a1 1 0 1 1 0-2h1.586L36 16.586V15a1 1 0 1 1 2 0v1.586L40.414 19H42a1 1 0 1 1 0 2zm7 20h-1v1a1 1 0 1 1-2 0v-1h-1a1 1 0 1 1 0-2h1v-1a1 1 0 1 1 2 0v1h1a1 1 0 1 1 0 2zm1.259-13.034a1 1 0 1 1-.518-1.932 1 1 0 0 1 .518 1.932z" fill-rule="evenodd"></path></g><!----></svg>