<svg data-v-423bf9ae="" xmlns="http://www.w3.org/2000/svg" viewBox="0 0 60 60" class="icon"><!----><!----><!----><!----><g data-v-423bf9ae="" id="b6ee5896-fd50-44bd-9180-179d5789f749" transform="matrix(1,0,0,1,0,0)" stroke="none" fill="black"><path d="M30 0C13.458 0 0 13.458 0 30s13.458 30 30 30 30-13.458 30-30S46.542 0 30 0zm-6.259 10.034a1 1 0 1 1 .518 1.932 1 1 0 0 1-.518-1.932zm-9.448 31.191a1 1 0 1 1-.518-1.932 1 1 0 0 1 .518 1.932zM16 18h-1v1a1 1 0 1 1-2 0v-1h-1a1 1 0 1 1 0-2h1v-1a1 1 0 1 1 2 0v1h1a1 1 0 1 1 0 2zm8.259 33.966a1 1 0 1 1-.518-1.932 1 1 0 0 1 .518 1.932zM27 34h-1v1a1 1 0 1 1-2 0v-1h-1a1 1 0 1 1 0-2h1v-1a1 1 0 1 1 2 0v1h1a1 1 0 1 1 0 2zm8-28h1V5a1 1 0 1 1 2 0v1h1a1 1 0 1 1 0 2h-1v1a1 1 0 1 1-2 0V8h-1a1 1 0 1 1 0-2zm4.259 43.966a1 1 0 1 1-.518-1.932 1 1 0 0 1 .518 1.932zM42 21h-1.586L38 23.414V25a1 1 0 1 1-2 0v-1.586L33.586 21H32a1 1 0 1 1 0-2h1.586L36 16.586V15a1 1 0 1 1 2 0v1.586L40.414 19H42a1 1 0 1 1 0 2zm7 20h-1v1a1 1 0 1 1-2 0v-1h-1a1 1 0 1 1 0-2h1v-1a1 1 0 1 1 2 0v1h1a1 1 0 1 1 0 2zm1.259-13.034a1 1 0 1 1-.518-1.932 1 1 0 0 1 .518 1.932z" fill-rule="evenodd"></path></g><!----></svg>