<?xml version="1.0" standalone="no"?>
<!DOCTYPE svg PUBLIC "-//W3C//DTD SVG 20010904//EN"
 "http://www.w3.org/TR/2001/REC-SVG-20010904/DTD/svg10.dtd">
<svg version="1.0" xmlns="http://www.w3.org/2000/svg"
 width="1000.000000pt" height="1000.000000pt" viewBox="0 0 1000.000000 1000.000000"
 preserveAspectRatio="xMidYMid meet">
<metadata>
Created by potrace 1.11, written by Peter Selinger 2001-2013
</metadata>
<g transform="translate(0.000000,1000.000000) scale(0.100000,-0.100000)"
fill="#000000" stroke="none">
<path d="M4848 8664 c-2 -1 -50 -5 -108 -9 -179 -11 -233 -18 -410 -50 -103
-19 -112 -21 -225 -50 -55 -14 -108 -27 -118 -30 -63 -15 -333 -112 -433 -156
-924 -401 -1637 -1151 -1990 -2091 -38 -102 -117 -354 -128 -413 -3 -11 -12
-54 -21 -95 -9 -41 -19 -88 -21 -105 -3 -16 -9 -52 -14 -80 -5 -27 -12 -75
-16 -105 -3 -30 -7 -66 -9 -80 -25 -185 -25 -615 0 -800 2 -14 6 -47 9 -73 53
-440 220 -939 445 -1332 53 -93 200 -320 231 -358 6 -7 40 -50 76 -97 155
-198 381 -429 561 -575 7 -5 18 -15 26 -21 314 -259 766 -504 1171 -633 198
-63 494 -130 653 -147 31 -3 64 -7 74 -9 123 -24 627 -24 799 0 14 2 50 6 80
10 30 3 114 17 185 31 180 34 174 33 235 50 30 9 64 18 74 20 49 9 234 71 357
119 466 182 890 458 1244 810 150 150 231 242 340 385 283 374 466 739 615
1225 30 100 90 393 105 510 3 28 8 66 10 85 24 190 24 674 0 798 -2 10 -6 44
-9 76 -5 47 -45 271 -61 341 -3 11 -7 29 -9 40 -100 445 -342 957 -639 1350
-141 186 -394 458 -522 560 -27 22 -54 45 -60 51 -5 6 -46 39 -90 73 -44 33
-85 65 -92 71 -13 11 -166 114 -233 156 -305 195 -796 397 -1120 460 -14 3
-33 7 -42 10 -10 3 -28 7 -40 9 -150 26 -210 35 -248 40 -25 3 -56 7 -70 10
-67 12 -552 29 -562 19z m1071 -503 c39 -21 54 -58 57 -140 2 -42 3 -78 3 -81
1 -3 36 -6 80 -7 87 -1 122 -16 147 -64 17 -34 18 -86 0 -117 -25 -45 -65 -62
-148 -62 -67 0 -78 -2 -79 -17 0 -10 -1 -47 -3 -83 -3 -78 -18 -107 -70 -130
-58 -27 -113 -13 -150 38 -15 19 -21 45 -22 101 -2 42 -3 79 -3 84 -1 4 -35 7
-76 7 -87 0 -112 10 -143 54 -40 59 -21 140 40 172 20 10 58 17 105 17 42 1
73 6 74 12 0 5 2 42 3 80 2 80 19 114 68 138 34 17 83 16 117 -2z m-1595 -733
c101 -54 74 -207 -39 -224 -124 -18 -188 127 -94 213 37 32 85 37 133 11z
m-1222 -490 c44 -17 62 -54 64 -138 2 -41 3 -78 3 -82 1 -5 35 -8 77 -8 85 0
121 -15 148 -60 34 -58 7 -145 -53 -170 -16 -6 -62 -12 -102 -13 l-73 -2 1
-50 c3 -84 -7 -123 -37 -154 -38 -38 -89 -47 -136 -25 -53 25 -68 55 -71 143
-1 42 -2 79 -3 82 0 3 -36 6 -80 6 -65 1 -85 5 -110 23 -50 36 -65 102 -35
160 22 43 50 54 144 60 l85 5 -1 69 c-1 68 14 123 39 143 38 30 81 34 140 11z
m2815 0 c47 -24 57 -55 60 -182 l3 -119 146 -146 146 -147 106 2 c95 1 112 -2
148 -22 63 -36 81 -101 44 -162 -30 -48 -72 -62 -193 -62 l-103 0 -145 -145
c-79 -80 -146 -148 -147 -150 -2 -2 -5 -55 -5 -119 -2 -99 -5 -118 -23 -143
-53 -71 -145 -71 -198 0 -18 24 -21 44 -23 140 -1 62 -2 115 -2 118 -1 3 -67
72 -147 153 l-146 146 -111 0 c-93 0 -117 3 -144 20 -41 24 -63 67 -58 111 11
90 58 116 207 115 l108 -1 146 146 146 146 2 119 c2 101 5 124 21 146 39 52
103 66 162 36z m1599 -1473 c13 -8 31 -32 39 -52 27 -65 0 -130 -69 -158 -45
-19 -90 -10 -125 26 -104 103 32 265 155 184z m-3080 -475 c50 -18 68 -55 74
-150 l5 -84 75 -1 c109 -2 149 -30 165 -114 6 -32 -27 -93 -63 -113 -22 -13
-52 -18 -106 -18 l-76 0 0 -75 c0 -117 -37 -165 -127 -165 -78 0 -120 62 -117
174 l2 66 -77 0 c-59 0 -84 5 -109 20 -67 41 -77 133 -20 190 31 31 34 32 138
34 l65 1 1 72 c1 87 16 126 58 153 35 22 69 25 112 10z m2704 -863 c39 -19 60
-72 60 -154 l0 -73 70 0 c95 0 136 -18 159 -70 22 -49 15 -99 -19 -135 -30
-32 -63 -41 -142 -40 l-68 1 0 -68 c0 -109 -31 -159 -107 -174 -42 -8 -100 21
-120 60 -11 20 -17 58 -17 106 l-1 74 -76 2 c-41 0 -86 7 -99 14 -80 42 -91
138 -24 201 21 20 39 24 112 29 l86 5 2 83 c2 72 6 87 26 109 45 49 97 59 158
30z m-4007 -295 c77 -77 16 -217 -90 -206 -84 8 -134 84 -108 164 26 79 137
103 198 42z m3022 -1048 c45 -21 70 -70 62 -123 -9 -73 -66 -114 -139 -101
-54 10 -88 46 -95 100 -14 100 80 168 172 124z m-1813 -255 c87 -62 40 -208
-69 -214 -97 -6 -155 85 -111 174 33 67 116 85 180 40z"/>
</g>
</svg>
